<?xml version="1.0" encoding="UTF-8" standalone="no"?>
<!DOCTYPE svg PUBLIC "-//W3C//DTD SVG 1.1//EN"
 "http://www.w3.org/Graphics/SVG/1.1/DTD/svg11.dtd">
<!-- Generated by graphviz version 2.43.0 (0)
 -->
<!-- Title: G Pages: 1 -->
<svg width="1600pt" height="1506pt"
 viewBox="0.00 0.00 886.40 834.18" xmlns="http://www.w3.org/2000/svg" xmlns:xlink="http://www.w3.org/1999/xlink">
<g id="graph0" class="graph" transform="scale(1.81 1.81) rotate(0) translate(25.2 808.98)">
<title>G</title>
<polygon fill="#ffffff" stroke="transparent" points="-25.2,25.2 -25.2,-808.98 861.2,-808.98 861.2,25.2 -25.2,25.2"/>
<text text-anchor="middle" x="418" y="-765.38" font-family="DejaVu Sans" font-size="18.00">Временный граф без внутренних связей цикла</text>
<text text-anchor="middle" x="418" y="-745.38" font-family="DejaVu Sans" font-size="18.00">По этому графу рассчитываются предварительные места</text>
<!-- 1 -->
<g id="node1" class="node">
<title>1</title>
<ellipse fill="#ffe1de" stroke="#bf3029" stroke-width="2.5" cx="115" cy="-417.79" rx="33.47" ry="19.6"/>
<text text-anchor="middle" x="115" y="-414.39" font-family="DejaVu Sans" font-size="13.00">№ 1</text>
</g>
<!-- 7 -->
<g id="node7" class="node">
<title>7</title>
<ellipse fill="#fff0b3" stroke="#a87d16" stroke-width="1.4" cx="536" cy="-706.08" rx="53.07" ry="29.9"/>
<text text-anchor="middle" x="536" y="-709.68" font-family="DejaVu Sans" font-size="13.00">№ 7</text>
<text text-anchor="middle" x="536" y="-695.68" font-family="DejaVu Sans" font-size="13.00">место 1</text>
</g>
<!-- 1&#45;&gt;7 -->
<g id="edge1" class="edge">
<title>1&#45;&gt;7</title>
<path fill="none" stroke="#76879a" stroke-width="1.1" d="M135.3,-433.76C184.26,-469.71 313,-563.36 424,-636.38 447.09,-651.57 473.42,-667.77 494.74,-680.63"/>
<polygon fill="#76879a" stroke="#76879a" stroke-width="1.1" points="493.59,-682.59 500.33,-683.99 495.93,-678.69 493.59,-682.59"/>
</g>
<!-- 11 -->
<g id="node11" class="node">
<title>11</title>
<ellipse fill="#fff0b3" stroke="#a87d16" stroke-width="1.4" cx="371" cy="-507.29" rx="53.07" ry="29.9"/>
<text text-anchor="middle" x="371" y="-510.89" font-family="DejaVu Sans" font-size="13.00">№ 11</text>
<text text-anchor="middle" x="371" y="-496.89" font-family="DejaVu Sans" font-size="13.00">место 3</text>
</g>
<!-- 1&#45;&gt;11 -->
<g id="edge2" class="edge">
<title>1&#45;&gt;11</title>
<path fill="none" stroke="#76879a" stroke-width="1.1" stroke-dasharray="5,2" d="M142.47,-429.09C150.08,-431.89 158.34,-434.89 166,-437.59 218.04,-455.89 277.88,-475.82 319.43,-489.48"/>
<polygon fill="#76879a" stroke="#76879a" stroke-width="1.1" points="318.79,-491.66 325.68,-491.53 320.21,-487.34 318.79,-491.66"/>
</g>
<!-- 2 -->
<g id="node2" class="node">
<title>2</title>
<ellipse fill="#edf3fa" stroke="#7891ad" stroke-width="1.4" cx="256" cy="-258.59" rx="33.47" ry="19.6"/>
<text text-anchor="middle" x="256" y="-255.19" font-family="DejaVu Sans" font-size="13.00">№ 2</text>
</g>
<!-- 8 -->
<g id="node8" class="node">
<title>8</title>
<ellipse fill="#edf3fa" stroke="#7891ad" stroke-width="1.4" cx="115" cy="-338.19" rx="33.47" ry="19.6"/>
<text text-anchor="middle" x="115" y="-334.79" font-family="DejaVu Sans" font-size="13.00">№ 8</text>
</g>
<!-- 2&#45;&gt;8 -->
<g id="edge3" class="edge">
<title>2&#45;&gt;8</title>
<path fill="none" stroke="#76879a" stroke-width="1.1" d="M232.4,-272.58C208.2,-285.9 170.51,-306.64 144.39,-321.01"/>
<polygon fill="#76879a" stroke="#76879a" stroke-width="1.1" points="143.27,-319.03 138.68,-324.16 145.47,-323.02 143.27,-319.03"/>
</g>
<!-- 2&#45;&gt;11 -->
<g id="edge4" class="edge">
<title>2&#45;&gt;11</title>
<path fill="none" stroke="#76879a" stroke-width="1.1" stroke-dasharray="5,2" d="M264.64,-278.14C283.87,-319.38 330.41,-419.21 355.06,-472.1"/>
<polygon fill="#76879a" stroke="#76879a" stroke-width="1.1" points="353.15,-473.38 357.96,-478.31 357.27,-471.46 353.15,-473.38"/>
</g>
<!-- 16 -->
<g id="node16" class="node">
<title>16</title>
<ellipse fill="#edf3fa" stroke="#7891ad" stroke-width="1.4" cx="398" cy="-338.19" rx="38.78" ry="19.6"/>
<text text-anchor="middle" x="398" y="-334.79" font-family="DejaVu Sans" font-size="13.00">№ 16</text>
</g>
<!-- 2&#45;&gt;16 -->
<g id="edge5" class="edge">
<title>2&#45;&gt;16</title>
<path fill="none" stroke="#76879a" stroke-width="1.1" d="M279.77,-272.58C303.55,-285.58 340.27,-305.64 366.48,-319.96"/>
<polygon fill="#76879a" stroke="#76879a" stroke-width="1.1" points="365.44,-321.99 372.23,-323.11 367.62,-318 365.44,-321.99"/>
</g>
<!-- 3 -->
<g id="node3" class="node">
<title>3</title>
<ellipse fill="#edf3fa" stroke="#7891ad" stroke-width="1.4" cx="256" cy="-178.99" rx="33.47" ry="19.6"/>
<text text-anchor="middle" x="256" y="-175.59" font-family="DejaVu Sans" font-size="13.00">№ 3</text>
</g>
<!-- 3&#45;&gt;2 -->
<g id="edge6" class="edge">
<title>3&#45;&gt;2</title>
<path fill="none" stroke="#76879a" stroke-width="1.1" d="M256,-199.18C256,-209.04 256,-221.21 256,-231.88"/>
<polygon fill="#76879a" stroke="#76879a" stroke-width="1.1" points="253.73,-232.13 256,-238.63 258.28,-232.13 253.73,-232.13"/>
</g>
<!-- 3&#45;&gt;11 -->
<g id="edge7" class="edge">
<title>3&#45;&gt;11</title>
<path fill="none" stroke="#76879a" stroke-width="1.1" stroke-dasharray="5,2" d="M238.85,-196.21C228.6,-207.13 216.53,-222.48 211,-238.79 205.35,-255.46 205.94,-261.54 211,-278.39 235.3,-359.37 301.07,-436.07 340.31,-476.54"/>
<polygon fill="#76879a" stroke="#76879a" stroke-width="1.1" points="338.79,-478.24 344.96,-481.29 342.04,-475.06 338.79,-478.24"/>
</g>
<!-- 13 -->
<g id="node13" class="node">
<title>13</title>
<ellipse fill="#fff0b3" stroke="#a87d16" stroke-width="1.4" cx="619" cy="-606.68" rx="53.07" ry="29.9"/>
<text text-anchor="middle" x="619" y="-610.28" font-family="DejaVu Sans" font-size="13.00">№ 13</text>
<text text-anchor="middle" x="619" y="-596.28" font-family="DejaVu Sans" font-size="13.00">место 2</text>
</g>
<!-- 3&#45;&gt;13 -->
<g id="edge8" class="edge">
<title>3&#45;&gt;13</title>
<path fill="none" stroke="#76879a" stroke-width="1.1" d="M289.21,-181.18C385.03,-185.03 660.24,-199.34 740,-238.79 794.77,-265.88 836,-276.09 836,-337.19 836,-337.19 836,-337.19 836,-418.79 836,-506.21 733.63,-561.71 669.52,-587.9"/>
<polygon fill="#76879a" stroke="#76879a" stroke-width="1.1" points="668.62,-585.81 663.44,-590.34 670.32,-590.03 668.62,-585.81"/>
</g>
<!-- 4 -->
<g id="node4" class="node">
<title>4</title>
<ellipse fill="#ffe1de" stroke="#bf3029" stroke-width="2.5" cx="580" cy="-417.79" rx="33.47" ry="19.6"/>
<text text-anchor="middle" x="580" y="-414.39" font-family="DejaVu Sans" font-size="13.00">№ 4</text>
</g>
<!-- 4&#45;&gt;11 -->
<g id="edge9" class="edge">
<title>4&#45;&gt;11</title>
<path fill="none" stroke="#76879a" stroke-width="1.1" stroke-dasharray="5,2" d="M553.53,-429.87C519.71,-444.03 460.57,-468.79 418.79,-486.28"/>
<polygon fill="#76879a" stroke="#76879a" stroke-width="1.1" points="417.87,-484.2 412.75,-488.81 419.63,-488.4 417.87,-484.2"/>
</g>
<!-- 4&#45;&gt;13 -->
<g id="edge10" class="edge">
<title>4&#45;&gt;13</title>
<path fill="none" stroke="#76879a" stroke-width="1.1" d="M583.95,-437.74C590.43,-468.79 603.41,-531 611.63,-570.37"/>
<polygon fill="#76879a" stroke="#76879a" stroke-width="1.1" points="609.45,-571.06 613.01,-576.96 613.91,-570.13 609.45,-571.06"/>
</g>
<!-- 5 -->
<g id="node5" class="node">
<title>5</title>
<ellipse fill="#edf3fa" stroke="#7891ad" stroke-width="1.4" cx="695" cy="-258.59" rx="33.47" ry="19.6"/>
<text text-anchor="middle" x="695" y="-255.19" font-family="DejaVu Sans" font-size="13.00">№ 5</text>
</g>
<!-- 5&#45;&gt;11 -->
<g id="edge11" class="edge">
<title>5&#45;&gt;11</title>
<path fill="none" stroke="#76879a" stroke-width="1.1" stroke-dasharray="5,2" d="M664.52,-266.74C632.1,-275.34 580.32,-292 542,-318.39 483.37,-358.77 483.04,-385.05 435,-437.59 423.55,-450.11 410.82,-463.81 399.76,-475.66"/>
<polygon fill="#76879a" stroke="#76879a" stroke-width="1.1" points="397.9,-474.32 395.12,-480.62 401.22,-477.42 397.9,-474.32"/>
</g>
<!-- 12 -->
<g id="node12" class="node">
<title>12</title>
<ellipse fill="#edf3fa" stroke="#7891ad" stroke-width="1.4" cx="695" cy="-338.19" rx="38.78" ry="19.6"/>
<text text-anchor="middle" x="695" y="-334.79" font-family="DejaVu Sans" font-size="13.00">№ 12</text>
</g>
<!-- 5&#45;&gt;12 -->
<g id="edge12" class="edge">
<title>5&#45;&gt;12</title>
<path fill="none" stroke="#76879a" stroke-width="1.1" d="M695,-278.77C695,-288.64 695,-300.8 695,-311.47"/>
<polygon fill="#76879a" stroke="#76879a" stroke-width="1.1" points="692.73,-311.73 695,-318.23 697.28,-311.73 692.73,-311.73"/>
</g>
<!-- 5&#45;&gt;13 -->
<g id="edge13" class="edge">
<title>5&#45;&gt;13</title>
<path fill="none" stroke="#76879a" stroke-width="1.1" d="M713.77,-275.2C725.19,-285.99 738.76,-301.41 745,-318.39 751.07,-334.91 749.1,-340.88 745,-357.99 725.1,-441 672.52,-527.59 641.94,-573.15"/>
<polygon fill="#76879a" stroke="#76879a" stroke-width="1.1" points="639.9,-572.11 638.14,-578.77 643.67,-574.66 639.9,-572.11"/>
</g>
<!-- 6 -->
<g id="node6" class="node">
<title>6</title>
<ellipse fill="#edf3fa" stroke="#7891ad" stroke-width="1.4" cx="303" cy="-19.8" rx="33.47" ry="19.6"/>
<text text-anchor="middle" x="303" y="-16.4" font-family="DejaVu Sans" font-size="13.00">№ 6</text>
</g>
<!-- 6&#45;&gt;11 -->
<g id="edge14" class="edge">
<title>6&#45;&gt;11</title>
<path fill="none" stroke="#76879a" stroke-width="1.1" stroke-dasharray="5,2" d="M270,-22.7C191.47,-29.2 0,-57.4 0,-177.99 0,-177.99 0,-177.99 0,-339.19 0,-386.92 5.97,-407.48 43,-437.59 83.62,-470.61 229.19,-491.15 312.1,-500.44"/>
<polygon fill="#76879a" stroke="#76879a" stroke-width="1.1" points="312.23,-502.75 318.94,-501.2 312.73,-498.22 312.23,-502.75"/>
</g>
<!-- 14 -->
<g id="node14" class="node">
<title>14</title>
<ellipse fill="#edf3fa" stroke="#7891ad" stroke-width="1.4" cx="303" cy="-99.4" rx="38.78" ry="19.6"/>
<text text-anchor="middle" x="303" y="-96" font-family="DejaVu Sans" font-size="13.00">№ 14</text>
</g>
<!-- 6&#45;&gt;14 -->
<g id="edge15" class="edge">
<title>6&#45;&gt;14</title>
<path fill="none" stroke="#76879a" stroke-width="1.1" d="M303,-39.98C303,-49.85 303,-62.01 303,-72.68"/>
<polygon fill="#76879a" stroke="#76879a" stroke-width="1.1" points="300.73,-72.94 303,-79.44 305.28,-72.94 300.73,-72.94"/>
</g>
<!-- 6&#45;&gt;16 -->
<g id="edge16" class="edge">
<title>6&#45;&gt;16</title>
<path fill="none" stroke="#76879a" stroke-width="1.1" d="M319.91,-36.9C330.72,-48 344.28,-63.59 353,-79.6 396.48,-159.42 403.32,-187.53 401,-278.39 400.72,-289.37 400.15,-301.5 399.58,-311.87"/>
<polygon fill="#76879a" stroke="#76879a" stroke-width="1.1" points="397.3,-311.78 399.2,-318.4 401.84,-312.04 397.3,-311.78"/>
</g>
<!-- 8&#45;&gt;1 -->
<g id="edge17" class="edge">
<title>8&#45;&gt;1</title>
<path fill="none" stroke="#76879a" stroke-width="1.1" d="M115,-358.37C115,-368.24 115,-380.4 115,-391.07"/>
<polygon fill="#76879a" stroke="#76879a" stroke-width="1.1" points="112.73,-391.33 115,-397.83 117.28,-391.33 112.73,-391.33"/>
</g>
<!-- 8&#45;&gt;11 -->
<g id="edge18" class="edge">
<title>8&#45;&gt;11</title>
<path fill="none" stroke="#76879a" stroke-width="1.1" d="M128.67,-356.47C146.28,-377.83 178.75,-414.21 213,-437.59 245.78,-459.95 287.01,-477.59 319.13,-489.39"/>
<polygon fill="#76879a" stroke="#76879a" stroke-width="1.1" points="318.55,-491.59 325.43,-491.67 320.1,-487.31 318.55,-491.59"/>
</g>
<!-- 9 -->
<g id="node9" class="node">
<title>9</title>
<ellipse fill="#edf3fa" stroke="#7891ad" stroke-width="1.4" cx="587" cy="-338.19" rx="33.47" ry="19.6"/>
<text text-anchor="middle" x="587" y="-334.79" font-family="DejaVu Sans" font-size="13.00">№ 9</text>
</g>
<!-- 9&#45;&gt;4 -->
<g id="edge19" class="edge">
<title>9&#45;&gt;4</title>
<path fill="none" stroke="#76879a" stroke-width="1.1" d="M585.31,-357.98C584.4,-368 583.27,-380.49 582.29,-391.37"/>
<polygon fill="#76879a" stroke="#76879a" stroke-width="1.1" points="580.02,-391.23 581.7,-397.91 584.55,-391.64 580.02,-391.23"/>
</g>
<!-- 9&#45;&gt;11 -->
<g id="edge20" class="edge">
<title>9&#45;&gt;11</title>
<path fill="none" stroke="#76879a" stroke-width="1.1" stroke-dasharray="5,2" d="M571.18,-355.94C551.37,-376.44 515.92,-411.61 482,-437.59 460.54,-454.03 434.98,-470.06 413.8,-482.5"/>
<polygon fill="#76879a" stroke="#76879a" stroke-width="1.1" points="412.42,-480.67 407.95,-485.91 414.71,-484.6 412.42,-480.67"/>
</g>
<!-- 9&#45;&gt;13 -->
<g id="edge21" class="edge">
<title>9&#45;&gt;13</title>
<path fill="none" stroke="#76879a" stroke-width="1.1" d="M601.72,-356.13C610.35,-367.22 620.43,-382.49 625,-397.99 642.29,-456.61 634.07,-528.62 626.53,-570.61"/>
<polygon fill="#76879a" stroke="#76879a" stroke-width="1.1" points="624.27,-570.28 625.33,-577.08 628.75,-571.11 624.27,-570.28"/>
</g>
<!-- 10 -->
<g id="node10" class="node">
<title>10</title>
<ellipse fill="#edf3fa" stroke="#7891ad" stroke-width="1.4" cx="115" cy="-99.4" rx="38.78" ry="19.6"/>
<text text-anchor="middle" x="115" y="-96" font-family="DejaVu Sans" font-size="13.00">№ 10</text>
</g>
<!-- 10&#45;&gt;3 -->
<g id="edge22" class="edge">
<title>10&#45;&gt;3</title>
<path fill="none" stroke="#76879a" stroke-width="1.1" d="M140.53,-114.45C164.63,-127.71 200.76,-147.59 226.17,-161.58"/>
<polygon fill="#76879a" stroke="#76879a" stroke-width="1.1" points="225.27,-163.68 232.07,-164.82 227.47,-159.7 225.27,-163.68"/>
</g>
<!-- 10&#45;&gt;8 -->
<g id="edge23" class="edge">
<title>10&#45;&gt;8</title>
<path fill="none" stroke="#76879a" stroke-width="1.1" d="M115,-119.37C115,-161.63 115,-263.53 115,-311.46"/>
<polygon fill="#76879a" stroke="#76879a" stroke-width="1.1" points="112.73,-311.62 115,-318.12 117.28,-311.62 112.73,-311.62"/>
</g>
<!-- 10&#45;&gt;11 -->
<g id="edge24" class="edge">
<title>10&#45;&gt;11</title>
<path fill="none" stroke="#76879a" stroke-width="1.1" stroke-dasharray="5,2" d="M101.57,-118.18C81.75,-146.23 47,-203.18 47,-257.59 47,-257.59 47,-257.59 47,-339.19 47,-384.1 38.16,-405.91 70,-437.59 103.61,-471.03 234.51,-491.06 312.19,-500.24"/>
<polygon fill="#76879a" stroke="#76879a" stroke-width="1.1" points="312.35,-502.55 319.07,-501.04 312.88,-498.03 312.35,-502.55"/>
</g>
<!-- 11&#45;&gt;7 -->
<g id="edge25" class="edge">
<title>11&#45;&gt;7</title>
<path fill="none" stroke="#76879a" stroke-width="1.1" d="M392.91,-534.42C423.11,-570.44 477.46,-635.26 509.78,-673.81"/>
<polygon fill="#76879a" stroke="#76879a" stroke-width="1.1" points="508.08,-675.32 514,-678.84 511.57,-672.4 508.08,-675.32"/>
</g>
<!-- 11&#45;&gt;13 -->
<g id="edge26" class="edge">
<title>11&#45;&gt;13</title>
<path fill="none" stroke="#76879a" stroke-width="1.1" d="M413.63,-525.03C457.02,-542.07 524.19,-568.45 569.81,-586.36"/>
<polygon fill="#76879a" stroke="#76879a" stroke-width="1.1" points="569.21,-588.57 576.09,-588.83 570.88,-584.34 569.21,-588.57"/>
</g>
<!-- 12&#45;&gt;4 -->
<g id="edge27" class="edge">
<title>12&#45;&gt;4</title>
<path fill="none" stroke="#76879a" stroke-width="1.1" d="M672.28,-354.52C653.49,-367.2 626.77,-385.23 606.91,-398.63"/>
<polygon fill="#76879a" stroke="#76879a" stroke-width="1.1" points="605.62,-396.76 601.51,-402.28 608.17,-400.53 605.62,-396.76"/>
</g>
<!-- 12&#45;&gt;7 -->
<g id="edge28" class="edge">
<title>12&#45;&gt;7</title>
<path fill="none" stroke="#76879a" stroke-width="1.1" d="M700.45,-357.9C713.84,-408 743.16,-547.37 684,-636.38 663.42,-667.35 625.04,-684.62 592.52,-694.1"/>
<polygon fill="#76879a" stroke="#76879a" stroke-width="1.1" points="591.75,-691.95 586.1,-695.89 592.97,-696.33 591.75,-691.95"/>
</g>
<!-- 12&#45;&gt;11 -->
<g id="edge29" class="edge">
<title>12&#45;&gt;11</title>
<path fill="none" stroke="#76879a" stroke-width="1.1" stroke-dasharray="5,2" d="M686.7,-357.75C675.77,-380.08 654.42,-417.1 625,-437.59 566.46,-478.35 484.83,-494.95 430.06,-501.69"/>
<polygon fill="#76879a" stroke="#76879a" stroke-width="1.1" points="429.71,-499.44 423.52,-502.46 430.24,-503.96 429.71,-499.44"/>
</g>
<!-- 13&#45;&gt;7 -->
<g id="edge30" class="edge">
<title>13&#45;&gt;7</title>
<path fill="none" stroke="#76879a" stroke-width="1.1" d="M596.76,-633.78C586.24,-646.12 573.61,-660.94 562.6,-673.87"/>
<polygon fill="#76879a" stroke="#76879a" stroke-width="1.1" points="560.79,-672.48 558.3,-678.91 564.25,-675.44 560.79,-672.48"/>
</g>
<!-- 14&#45;&gt;3 -->
<g id="edge31" class="edge">
<title>14&#45;&gt;3</title>
<path fill="none" stroke="#76879a" stroke-width="1.1" d="M291.86,-118.79C285.44,-129.4 277.28,-142.85 270.38,-154.26"/>
<polygon fill="#76879a" stroke="#76879a" stroke-width="1.1" points="268.32,-153.27 266.9,-160.01 272.21,-155.62 268.32,-153.27"/>
</g>
<!-- 14&#45;&gt;11 -->
<g id="edge32" class="edge">
<title>14&#45;&gt;11</title>
<path fill="none" stroke="#76879a" stroke-width="1.1" d="M320.05,-117.33C353.11,-151.58 424.7,-233.11 448,-318.39 452.64,-335.37 452.17,-340.89 448,-357.99 442.29,-381.37 411.64,-436.73 390.78,-472.8"/>
<polygon fill="#76879a" stroke="#76879a" stroke-width="1.1" points="388.56,-472.09 387.26,-478.85 392.49,-474.37 388.56,-472.09"/>
</g>
<!-- 15 -->
<g id="node15" class="node">
<title>15</title>
<ellipse fill="#edf3fa" stroke="#7891ad" stroke-width="1.4" cx="351" cy="-258.59" rx="38.78" ry="19.6"/>
<text text-anchor="middle" x="351" y="-255.19" font-family="DejaVu Sans" font-size="13.00">№ 15</text>
</g>
<!-- 15&#45;&gt;1 -->
<g id="edge33" class="edge">
<title>15&#45;&gt;1</title>
<path fill="none" stroke="#76879a" stroke-width="1.1" d="M327.94,-274.95C284.03,-304.2 188.62,-367.75 141.89,-398.88"/>
<polygon fill="#76879a" stroke="#76879a" stroke-width="1.1" points="140.59,-397.01 136.44,-402.51 143.11,-400.8 140.59,-397.01"/>
</g>
<!-- 15&#45;&gt;9 -->
<g id="edge34" class="edge">
<title>15&#45;&gt;9</title>
<path fill="none" stroke="#76879a" stroke-width="1.1" d="M382.83,-270.06C427.05,-284.6 506.77,-310.81 552.41,-325.82"/>
<polygon fill="#76879a" stroke="#76879a" stroke-width="1.1" points="551.74,-327.99 558.62,-327.86 553.16,-323.67 551.74,-327.99"/>
</g>
<!-- 15&#45;&gt;11 -->
<g id="edge35" class="edge">
<title>15&#45;&gt;11</title>
<path fill="none" stroke="#76879a" stroke-width="1.1" stroke-dasharray="5,2" d="M349.8,-278.38C349.12,-289.92 348.34,-305.01 348,-318.39 347.55,-335.99 346.65,-340.44 348,-357.99 351.01,-396.99 358.4,-441.26 364,-471.19"/>
<polygon fill="#76879a" stroke="#76879a" stroke-width="1.1" points="361.79,-471.77 365.23,-477.73 366.26,-470.92 361.79,-471.77"/>
</g>
<!-- 16&#45;&gt;4 -->
<g id="edge36" class="edge">
<title>16&#45;&gt;4</title>
<path fill="none" stroke="#76879a" stroke-width="1.1" d="M426.84,-351.49C459.68,-365.49 513.2,-388.31 547.49,-402.93"/>
<polygon fill="#76879a" stroke="#76879a" stroke-width="1.1" points="546.79,-405.1 553.66,-405.56 548.57,-400.92 546.79,-405.1"/>
</g>
<!-- 16&#45;&gt;11 -->
<g id="edge37" class="edge">
<title>16&#45;&gt;11</title>
<path fill="none" stroke="#76879a" stroke-width="1.1" d="M394.96,-358.03C390.55,-385.32 382.3,-436.33 376.73,-470.8"/>
<polygon fill="#76879a" stroke="#76879a" stroke-width="1.1" points="374.45,-470.68 375.66,-477.46 378.94,-471.41 374.45,-470.68"/>
</g>
</g>
</svg>
